{
	"asset":{
		"generator":"Khronos glTF Blender I/O v4.0.44",
		"version":"2.0"
	},
	"scene":0,
	"scenes":[
		{
			"name":"Scene",
			"nodes":[
				0
			]
		}
	],
	"nodes":[
		{
			"mesh":0,
			"name":"Cube"
		}
	],
	"materials":[
		{
			"doubleSided":true,
			"name":"Material.004",
			"pbrMetallicRoughness":{
				"baseColorTexture":{
					"index":0
				},
				"metallicFactor":0,
				"roughnessFactor":0.5
			}
		}
	],
	"meshes":[
		{
			"name":"Cube.007",
			"primitives":[
				{
					"attributes":{
						"POSITION":0,
						"NORMAL":1,
						"TEXCOORD_0":2,
						"TANGENT":3
					},
					"indices":4,
					"material":0
				}
			]
		}
	],
	"textures":[
		{
			"sampler":0,
			"source":0
		}
	],
	"images":[
		{
			"mimeType":"image/jpeg",
			"name":"Tiles107_1K-JPG_Color",
			"uri":"tile.jpg"
		}
	],
	"accessors":[
		{
			"bufferView":0,
			"componentType":5126,
			"count":25350,
			"max":[
				0.6404580473899841,
				0.6404580473899841,
				0.6404580473899841
			],
			"min":[
				-0.6404580473899841,
				-0.6404580473899841,
				-0.6404580473899841
			],
			"type":"VEC3"
		},
		{
			"bufferView":1,
			"componentType":5126,
			"count":25350,
			"type":"VEC3"
		},
		{
			"bufferView":2,
			"componentType":5126,
			"count":25350,
			"type":"VEC2"
		},
		{
			"bufferView":3,
			"componentType":5126,
			"count":25350,
			"type":"VEC4"
		},
		{
			"bufferView":4,
			"componentType":5123,
			"count":147456,
			"type":"SCALAR"
		}
	],
	"bufferViews":[
		{
			"buffer":0,
			"byteLength":304200,
			"byteOffset":0,
			"target":34962
		},
		{
			"buffer":0,
			"byteLength":304200,
			"byteOffset":304200,
			"target":34962
		},
		{
			"buffer":0,
			"byteLength":202800,
			"byteOffset":608400,
			"target":34962
		},
		{
			"buffer":0,
			"byteLength":405600,
			"byteOffset":811200,
			"target":34962
		},
		{
			"buffer":0,
			"byteLength":294912,
			"byteOffset":1216800,
			"target":34963
		}
	],
	"samplers":[
		{
			"magFilter":9729,
			"minFilter":9987
		}
	],
	"buffers":[
		{
			"byteLength":1511712,
			"uri":"unit-sphere.bin"
		}
	]
}
